<svg width="10" height="10" viewBox="0 0 10 10" fill="none" xmlns="http://www.w3.org/2000/svg">
<path d="M5.00053 0C3.00355 0 1.37891 1.62465 1.37891 3.6216C1.37891 6.09988 4.6199 9.73815 4.75789 9.89182C4.8875 10.0362 5.11379 10.0359 5.24316 9.89182C5.38115 9.73815 8.62215 6.09988 8.62215 3.6216C8.62211 1.62465 6.99748 0 5.00053 0ZM5.00053 5.44373C3.9958 5.44373 3.17842 4.62633 3.17842 3.6216C3.17842 2.61688 3.99582 1.79949 5.00053 1.79949C6.00523 1.79949 6.82262 2.61689 6.82262 3.62162C6.82262 4.62635 6.00523 5.44373 5.00053 5.44373Z" fill="white"/>
</svg>
